# Low-poly skeletal arm approximation
v -2.51127 2.72018 -0.21000
v -2.88873 2.27982 -0.21000
v -2.88873 2.27982 0.21000
v -2.51127 2.72018 0.21000
v -0.46333 0.85944 -0.21000
v -0.73667 0.54056 -0.21000
v -0.73667 0.54056 0.21000
v -0.46333 0.85944 0.21000
v -0.42734 0.81953 -0.24000
v -0.77266 0.58047 -0.24000
v -0.77266 0.58047 0.24000
v -0.42734 0.81953 0.24000
v 0.14599 0.25492 -0.24000
v -0.44599 -0.15492 -0.24000
v -0.44599 -0.15492 0.24000
v 0.14599 0.25492 0.24000
v 0.08428 0.32333 -0.22000
v -0.38428 -0.22333 -0.22000
v -0.38428 -0.22333 0.22000
v 0.08428 0.32333 0.22000
v 0.66714 -0.41333 -0.22000
v 0.43286 -0.68667 -0.22000
v 0.43286 -0.68667 0.22000
v 0.66714 -0.41333 0.22000
v 0.68067 -0.42621 -0.20000
v 0.41933 -0.67379 -0.20000
v 0.41933 -0.67379 0.20000
v 0.68067 -0.42621 0.20000
v 2.56053 -2.25055 -0.20000
v 2.13947 -2.64945 -0.20000
v 2.13947 -2.64945 0.20000
v 2.56053 -2.25055 0.20000
v -0.15000 0.05000 0.42000
v -0.15000 0.05000 0.42000
v -0.15000 0.05000 0.42000
v -0.15000 0.05000 0.42000
v -0.15000 0.05000 0.42000
v -0.15000 0.05000 0.42000
v -0.15000 0.05000 0.42000
v -0.15000 0.05000 0.42000
v 0.21373 0.05000 0.21000
v 0.10720 0.30720 0.21000
v -0.15000 0.41373 0.21000
v -0.40720 0.30720 0.21000
v -0.51373 0.05000 0.21000
v -0.40720 -0.20720 0.21000
v -0.15000 -0.31373 0.21000
v 0.10720 -0.20720 0.21000
v 0.21373 0.05000 -0.21000
v 0.10720 0.30720 -0.21000
v -0.15000 0.41373 -0.21000
v -0.40720 0.30720 -0.21000
v -0.51373 0.05000 -0.21000
v -0.40720 -0.20720 -0.21000
v -0.15000 -0.31373 -0.21000
v 0.10720 -0.20720 -0.21000
v -0.15000 0.05000 -0.42000
v -0.15000 0.05000 -0.42000
v -0.15000 0.05000 -0.42000
v -0.15000 0.05000 -0.42000
v -0.15000 0.05000 -0.42000
v -0.15000 0.05000 -0.42000
v -0.15000 0.05000 -0.42000
v -0.15000 0.05000 -0.42000
f 1 2 3 4
f 5 8 7 6
f 1 5 6 2
f 4 3 7 8
f 2 6 7 3
f 1 4 8 5
f 9 10 11 12
f 13 16 15 14
f 9 13 14 10
f 12 11 15 16
f 10 14 15 11
f 9 12 16 13
f 17 18 19 20
f 21 24 23 22
f 17 21 22 18
f 20 19 23 24
f 18 22 23 19
f 17 20 24 21
f 25 26 27 28
f 29 32 31 30
f 25 29 30 26
f 28 27 31 32
f 26 30 31 27
f 25 28 32 29
f 33 34 42 41
f 34 35 43 42
f 35 36 44 43
f 36 37 45 44
f 37 38 46 45
f 38 39 47 46
f 39 40 48 47
f 40 33 41 48
f 41 42 50 49
f 42 43 51 50
f 43 44 52 51
f 44 45 53 52
f 45 46 54 53
f 46 47 55 54
f 47 48 56 55
f 48 41 49 56
f 49 50 58 57
f 50 51 59 58
f 51 52 60 59
f 52 53 61 60
f 53 54 62 61
f 54 55 63 62
f 55 56 64 63
f 56 49 57 64
